<svg width="99" height="99" viewBox="0 0 99 99" fill="none" xmlns="http://www.w3.org/2000/svg">
<path d="M49 10C26.9089 10 9 27.9089 9 50C9 72.0911 26.9089 90 49 90C71.0911 90 89 72.0911 89 50C88.9753 27.9193 71.0807 10.0247 49 10ZM49 87.3333C28.3815 87.3333 11.6667 70.6185 11.6667 50C11.6667 29.3815 28.3815 12.6667 49 12.6667C69.6185 12.6667 86.3333 29.3815 86.3333 50C86.3099 70.6087 69.6087 87.3099 49 87.3333Z" fill="#88B13E"/>
<path d="M66.5293 54.8778L55.2122 52.8778C54.6393 52.7769 54.0677 53.0581 53.7988 53.5737L51.0547 58.8322C46.1992 56.6818 42.319 52.7996 40.1706 47.9429L45.4238 45.1987C45.9395 44.9298 46.2207 44.3582 46.1198 43.7853L44.1198 32.4696C44.0573 32.1134 43.8529 31.7983 43.5534 31.5959C40.6921 29.6662 36.9993 29.4722 33.9518 31.092C30.9043 32.7124 29 35.8823 29 39.3335C29.0189 56.2625 42.7376 69.9813 59.6667 70.0002C63.1185 69.9995 66.2884 68.0939 67.9082 65.0457C69.5273 61.9969 69.332 58.3035 67.3997 55.4429C67.1979 55.1447 66.8841 54.9403 66.5293 54.8778ZM59.6667 67.3335C44.2103 67.3159 31.6842 54.7899 31.6667 39.3335C31.666 36.965 32.9225 34.7742 34.9668 33.5776C37.0111 32.3817 39.5371 32.3602 41.6016 33.5216L43.3255 43.2892L37.8587 46.1427C37.2598 46.4552 36.9889 47.1655 37.2279 47.7977C39.6654 54.2456 44.7539 59.3374 51.2012 61.7775C51.8333 62.0164 52.5436 61.7456 52.8561 61.1466L55.7109 55.6798L65.4785 57.4045C66.6374 59.4683 66.6139 61.9917 65.4186 64.0347C64.2227 66.077 62.0339 67.3328 59.6667 67.3335Z" fill="#88B13E"/>
</svg>
