<svg width="99" height="99" viewBox="0 0 99 99" fill="none" xmlns="http://www.w3.org/2000/svg">
<path d="M49.5 10C27.685 10 10 27.685 10 49.5C10 71.315 27.685 89 49.5 89C71.315 89 89 71.315 89 49.5C88.9756 27.6953 71.3047 10.0244 49.5 10ZM49.5 86.3667C29.1392 86.3667 12.6333 69.8608 12.6333 49.5C12.6333 29.1392 29.1392 12.6333 49.5 12.6333C69.8608 12.6333 86.3667 29.1392 86.3667 49.5C86.3435 69.8511 69.8511 86.3435 49.5 86.3667Z" fill="#88B13E"/>
<path d="M67.9333 33.7002H31.0667C30.3395 33.7002 29.75 34.2897 29.75 35.0169V63.9835C29.75 64.7107 30.3395 65.3002 31.0667 65.3002H67.9333C68.6605 65.3002 69.25 64.7107 69.25 63.9835V35.0169C69.25 34.2897 68.6605 33.7002 67.9333 33.7002ZM64.3781 36.3335L49.5 49.0829L34.6219 36.3335H64.3781ZM32.3833 62.6669V37.8791L48.643 51.8159C49.1355 52.2377 49.862 52.2377 50.3544 51.8159L66.6167 37.8791V62.6669H32.3833Z" fill="#88B13E"/>
</svg>
