<svg width="16" height="17" viewBox="0 0 16 17" fill="none" xmlns="http://www.w3.org/2000/svg">
<path d="M9.57827 10.36C10.0805 9.85777 10.3316 9.25174 10.3316 8.54192C10.3316 7.8321 10.0805 7.22607 9.57827 6.72384C9.07603 6.22161 8.47001 5.97049 7.76019 5.97049C7.05036 5.97049 6.44434 6.22161 5.9421 6.72384C5.43987 7.22607 5.18876 7.8321 5.18876 8.54192C5.18876 9.25174 5.43987 9.85777 5.9421 10.36C6.44434 10.8622 7.05036 11.1134 7.76019 11.1134C8.47001 11.1134 9.07603 10.8622 9.57827 10.36ZM10.5626 5.73947C11.3327 6.50956 11.7178 7.44371 11.7178 8.54192C11.7178 9.64014 11.3327 10.5743 10.5626 11.3444C9.79255 12.1145 8.8584 12.4995 7.76019 12.4995C6.66197 12.4995 5.72782 12.1145 4.95773 11.3444C4.18764 10.5743 3.80259 9.64014 3.80259 8.54192C3.80259 7.44371 4.18764 6.50956 4.95773 5.73947C5.72782 4.96938 6.66197 4.58433 7.76019 4.58433C8.8584 4.58433 9.79255 4.96938 10.5626 5.73947ZM12.5314 3.77072C12.7122 3.95152 12.8026 4.16916 12.8026 4.42362C12.8026 4.67808 12.7122 4.89572 12.5314 5.07652C12.3506 5.25732 12.133 5.34773 11.8785 5.34773C11.624 5.34773 11.4064 5.25732 11.2256 5.07652C11.0448 4.89572 10.9544 4.67808 10.9544 4.42362C10.9544 4.16916 11.0448 3.95152 11.2256 3.77072C11.4064 3.58991 11.624 3.49951 11.8785 3.49951C12.133 3.49951 12.3506 3.58991 12.5314 3.77072ZM8.52358 2.2138C8.06153 2.2138 7.80706 2.2138 7.76019 2.2138C7.71331 2.2138 7.4555 2.2138 6.98675 2.2138C6.52469 2.2071 6.17313 2.2071 5.93206 2.2138C5.69099 2.2138 5.36621 2.22384 4.95773 2.24393C4.55594 2.25732 4.21108 2.29081 3.92313 2.34438C3.64188 2.39125 3.40416 2.45152 3.20996 2.52518C2.87514 2.65911 2.58049 2.85331 2.32603 3.10777C2.07157 3.36224 1.87737 3.65688 1.74344 3.9917C1.66978 4.1859 1.60616 4.42697 1.55259 4.71491C1.50572 4.99616 1.47224 5.34103 1.45215 5.74951C1.43876 6.1513 1.42871 6.47273 1.42202 6.7138C1.42202 6.95487 1.42202 7.30978 1.42202 7.77853C1.42871 8.24058 1.43206 8.49505 1.43206 8.54192C1.43206 8.5888 1.42871 8.84661 1.42202 9.31536C1.42202 9.77741 1.42202 10.129 1.42202 10.37C1.42871 10.6111 1.43876 10.9359 1.45215 11.3444C1.47224 11.7462 1.50572 12.091 1.55259 12.379C1.60616 12.6602 1.66978 12.898 1.74344 13.0921C1.87737 13.427 2.07157 13.7216 2.32603 13.9761C2.58049 14.2305 2.87514 14.4247 3.20996 14.5587C3.40416 14.6323 3.64188 14.6959 3.92313 14.7495C4.21108 14.7964 4.55594 14.8299 4.95773 14.85C5.36621 14.8634 5.69099 14.8734 5.93206 14.8801C6.17313 14.8801 6.52469 14.8801 6.98675 14.8801C7.4555 14.8734 7.71331 14.87 7.76019 14.87C7.80706 14.87 8.06153 14.8734 8.52358 14.8801C8.99233 14.8801 9.34724 14.8801 9.58831 14.8801C9.82938 14.8734 10.1508 14.8634 10.5526 14.85C10.9611 14.8299 11.306 14.7964 11.5872 14.7495C11.8751 14.6959 12.1162 14.6323 12.3104 14.5587C12.6452 14.4247 12.9399 14.2305 13.1943 13.9761C13.4488 13.7216 13.643 13.427 13.7769 13.0921C13.8506 12.898 13.9109 12.6602 13.9577 12.379C14.0113 12.091 14.0448 11.7462 14.0582 11.3444C14.0783 10.9359 14.0883 10.6111 14.0883 10.37C14.095 10.129 14.095 9.77741 14.0883 9.31536C14.0883 8.84661 14.0883 8.5888 14.0883 8.54192C14.0883 8.49505 14.0883 8.24058 14.0883 7.77853C14.095 7.30978 14.095 6.95487 14.0883 6.7138C14.0883 6.47273 14.0783 6.1513 14.0582 5.74951C14.0448 5.34103 14.0113 4.99616 13.9577 4.71491C13.9109 4.42697 13.8506 4.1859 13.7769 3.9917C13.643 3.65688 13.4488 3.36224 13.1943 3.10777C12.9399 2.85331 12.6452 2.65911 12.3104 2.52518C12.1162 2.45152 11.8751 2.39125 11.5872 2.34438C11.306 2.29081 10.9611 2.25732 10.5526 2.24393C10.1508 2.22384 9.82938 2.2138 9.58831 2.2138C9.34724 2.2071 8.99233 2.2071 8.52358 2.2138ZM15.4243 5.35777C15.4577 5.94706 15.4745 7.00844 15.4745 8.54192C15.4745 10.0754 15.4577 11.1368 15.4243 11.7261C15.3573 13.1189 14.9421 14.1971 14.1787 14.9605C13.4153 15.7238 12.3372 16.139 10.9443 16.206C10.3551 16.2395 9.29367 16.2562 7.76019 16.2562C6.2267 16.2562 5.16532 16.2395 4.57603 16.206C3.18317 16.139 2.10505 15.7238 1.34166 14.9605C0.578263 14.1971 0.163087 13.1189 0.0961227 11.7261C0.0626406 11.1368 0.0458984 10.0754 0.0458984 8.54192C0.0458984 7.00844 0.0626406 5.94706 0.0961227 5.35777C0.163087 3.96491 0.578263 2.88679 1.34166 2.1234C2.10505 1.36 3.18317 0.944824 4.57603 0.877861C5.16532 0.844378 6.2267 0.827637 7.76019 0.827637C9.29367 0.827637 10.3551 0.844378 10.9443 0.877861C12.3372 0.944824 13.4153 1.36 14.1787 2.1234C14.9421 2.88679 15.3573 3.96491 15.4243 5.35777Z" fill="white"/>
</svg>
