<svg width="17" height="13" viewBox="0 0 17 13" fill="none" xmlns="http://www.w3.org/2000/svg">
<path d="M16.1858 1.64007C15.7372 2.29632 15.1948 2.85547 14.5586 3.31752C14.5653 3.41127 14.5686 3.5519 14.5686 3.7394C14.5686 4.60993 14.4414 5.48047 14.1869 6.351C13.9325 7.21484 13.5441 8.0452 13.0218 8.84208C12.5061 9.63895 11.8901 10.3454 11.1735 10.9615C10.457 11.5709 9.59319 12.0597 8.58203 12.428C7.57087 12.7896 6.4894 12.9704 5.33761 12.9704C3.52288 12.9704 1.86217 12.4849 0.355469 11.514C0.589844 11.5407 0.851004 11.5541 1.13895 11.5541C2.64565 11.5541 3.98828 11.0921 5.16685 10.168C4.46373 10.1546 3.83426 9.94029 3.27846 9.52511C2.72266 9.10324 2.34096 8.56752 2.13337 7.91797C2.35435 7.95145 2.55859 7.96819 2.74609 7.96819C3.03404 7.96819 3.31864 7.93136 3.59989 7.8577C2.84989 7.70368 2.22712 7.33203 1.73158 6.74275C1.24275 6.14676 0.998325 5.45703 0.998325 4.67355V4.63337C1.45368 4.88783 1.94252 5.02511 2.46484 5.0452C2.02288 4.75056 1.67132 4.36551 1.41016 3.89007C1.149 3.41462 1.01841 2.899 1.01841 2.34319C1.01841 1.75391 1.16574 1.20815 1.46038 0.705915C2.27065 1.70368 3.25502 2.50391 4.4135 3.10658C5.57868 3.70257 6.82422 4.03404 8.15011 4.101C8.09654 3.84654 8.06975 3.59877 8.06975 3.3577C8.06975 2.46038 8.38448 1.69699 9.01395 1.06752C9.65011 0.431362 10.4168 0.113281 11.3142 0.113281C12.2517 0.113281 13.0419 0.454799 13.6847 1.13784C14.4146 0.99721 15.101 0.736049 15.7439 0.354353C15.4961 1.12444 15.0206 1.72042 14.3175 2.1423C14.9403 2.07534 15.5631 1.90792 16.1858 1.64007Z" fill="white"/>
</svg>
