<svg width="19" height="13" viewBox="0 0 19 13" fill="none" xmlns="http://www.w3.org/2000/svg">
<path d="M8.07974 8.87235L12.9414 6.36119L8.07974 3.81989V8.87235ZM9.938 0.213867C11.063 0.213867 12.1478 0.230608 13.1925 0.26409C14.2438 0.290876 15.0139 0.32101 15.5027 0.354492L16.236 0.39467C16.2427 0.39467 16.2996 0.401367 16.4068 0.41476C16.5139 0.421457 16.5909 0.431501 16.6378 0.444893C16.6847 0.45159 16.7617 0.464983 16.8688 0.485072C16.9826 0.505162 17.0797 0.531947 17.1601 0.56543C17.2405 0.598912 17.3342 0.642438 17.4414 0.69601C17.5485 0.749582 17.6523 0.816546 17.7527 0.896903C17.8532 0.970563 17.9503 1.05762 18.044 1.15806C18.0842 1.19824 18.1344 1.26186 18.1947 1.34891C18.2617 1.42927 18.3588 1.62347 18.486 1.9315C18.6199 2.23954 18.7103 2.57771 18.7572 2.94601C18.8108 3.37458 18.851 3.83329 18.8777 4.32213C18.9112 4.80427 18.9313 5.18262 18.938 5.45717V5.85896V7.22503C18.9447 8.19601 18.8844 9.16699 18.7572 10.138C18.7103 10.5063 18.6266 10.8411 18.5061 11.1424C18.3855 11.4371 18.2784 11.6413 18.1847 11.7552L18.044 11.9259C17.9503 12.0264 17.8532 12.1168 17.7527 12.1971C17.6523 12.2708 17.5485 12.3344 17.4414 12.388C17.3342 12.4348 17.2405 12.475 17.1601 12.5085C17.0797 12.542 16.9826 12.5688 16.8688 12.5889C16.7617 12.609 16.6813 12.6257 16.6277 12.6391C16.5809 12.6458 16.5038 12.6558 16.3967 12.6692C16.2963 12.6759 16.2427 12.6793 16.236 12.6793C14.5552 12.8065 12.4559 12.8701 9.938 12.8701C8.55184 12.8567 7.34648 12.8366 6.32193 12.8098C5.30407 12.7764 4.63443 12.7496 4.313 12.7295L3.82081 12.6893L3.4592 12.6491C3.21813 12.6157 3.03398 12.5822 2.90675 12.5487C2.78622 12.5152 2.61546 12.4449 2.39448 12.3378C2.18019 12.2306 1.99269 12.0933 1.83198 11.9259C1.7918 11.8857 1.73823 11.8255 1.67126 11.7451C1.611 11.6581 1.51389 11.4605 1.37997 11.1525C1.25273 10.8444 1.16568 10.5063 1.1188 10.138C1.06523 9.7094 1.02171 9.25405 0.988227 8.7719C0.961441 8.28306 0.944699 7.90137 0.938002 7.62681V7.22503V5.85896C0.931306 4.88797 0.991571 3.91699 1.1188 2.94601C1.16568 2.57771 1.24939 2.24623 1.36993 1.95159C1.49046 1.65025 1.5976 1.44266 1.69135 1.32882L1.83198 1.15806C1.92573 1.05762 2.02282 0.970563 2.12327 0.896903C2.22371 0.816546 2.32751 0.749582 2.43465 0.69601C2.5418 0.642438 2.63555 0.598912 2.7159 0.56543C2.79626 0.531947 2.89001 0.505162 2.99715 0.485072C3.11099 0.464983 3.19135 0.45159 3.23823 0.444893C3.2851 0.431501 3.36211 0.421457 3.46925 0.41476C3.5764 0.401367 3.63332 0.39467 3.64001 0.39467C5.32082 0.274135 7.42015 0.213867 9.938 0.213867Z" fill="white"/>
</svg>
