<svg width="34" height="34" viewBox="0 0 34 34" fill="none" xmlns="http://www.w3.org/2000/svg">
<path d="M5.18023 26.0702H5.18586L5.57636 26.0632C5.40863 26.1809 5.2857 26.3518 5.2276 26.5483C5.16949 26.7447 5.17965 26.9551 5.25641 27.145C5.34703 27.3687 5.5226 27.5473 5.74467 27.6418C5.96675 27.7363 6.21721 27.7389 6.44121 27.6491L8.25131 26.9232C8.46491 27.2638 8.73589 27.5649 9.05224 27.8131C9.56961 28.2218 10.1963 28.4682 10.8535 28.5214L26.2278 26.3765C26.4279 26.3466 26.617 26.2656 26.7768 26.1413C26.9366 26.0171 27.0617 25.8538 27.14 25.6671C28.1024 25.1774 28.9161 24.439 29.4966 23.5284C29.5418 23.4579 29.5572 23.3724 29.5394 23.2906C29.5215 23.2088 29.4719 23.1374 29.4015 23.0922C29.331 23.047 29.2455 23.0316 29.1637 23.0494C29.0819 23.0672 29.0105 23.1169 28.9653 23.1873C28.517 23.893 27.9104 24.4844 27.1936 24.9146C27.1358 24.6933 27.0141 24.4938 26.8437 24.3412C26.6733 24.1886 26.4617 24.0896 26.2353 24.0566L18.5204 22.8908C18.1701 22.1527 17.9908 21.0176 17.9649 20.179C19.0596 19.0849 19.4194 17.9777 19.5143 17.1755C19.5486 16.8846 19.5541 16.5911 19.5306 16.2992C20.0779 15.7672 20.7205 15.3431 21.4248 15.0491C21.7682 15.4468 22.2196 15.7459 22.7753 15.9425C22.4806 16.084 22.1952 16.244 21.9208 16.4216C21.2952 16.8267 21.26 17.3705 21.2946 17.6586C21.3046 17.7435 21.3341 17.825 21.381 17.8965C21.4279 17.968 21.4908 18.0276 21.5648 18.0706C21.6387 18.1136 21.7217 18.1387 21.807 18.144C21.8924 18.1494 21.9778 18.1347 22.0565 18.1013C22.4327 17.9419 22.8442 17.8843 23.2496 17.9343C23.905 18.0201 24.3848 17.8215 24.6964 17.6083C24.8818 18.0878 25.2393 18.4811 25.699 18.7111C26.0586 18.9035 26.3611 19.1873 26.5758 19.534C26.6202 19.6066 26.6809 19.6678 26.7532 19.7126C26.8256 19.7575 26.9074 19.7848 26.9921 19.7922C27.0096 19.7938 27.027 19.7947 27.0442 19.7947C27.1215 19.7947 27.1978 19.7785 27.2683 19.7471C27.3389 19.7157 27.402 19.6697 27.4536 19.6122C27.6487 19.397 27.9348 18.9326 27.6586 18.2414C27.5374 17.9382 27.3971 17.6431 27.2383 17.3578C27.8114 17.5191 28.3587 17.5339 28.8738 17.4031C29.6742 18.5082 29.9646 19.7467 29.7412 21.0966C29.7336 21.1419 29.7359 21.1882 29.748 21.2325C29.7601 21.2767 29.7817 21.3178 29.8113 21.3528C29.8409 21.3879 29.8778 21.416 29.9194 21.4353C29.961 21.4546 30.0064 21.4646 30.0522 21.4646H30.053C30.1273 21.4649 30.1993 21.4388 30.2563 21.391C30.3133 21.3432 30.3515 21.2768 30.3642 21.2036C30.6108 19.7385 30.3157 18.3875 29.4832 17.1727C29.9122 16.9484 30.286 16.6317 30.5777 16.2453C30.6294 16.1774 30.6581 16.0947 30.6597 16.0094C30.6612 15.924 30.6356 15.8404 30.5865 15.7706C30.5374 15.7007 30.4673 15.6483 30.3865 15.621C30.3056 15.5936 30.2181 15.5927 30.1367 15.6183C29.823 15.7165 29.2233 15.8149 28.7322 15.3692C27.939 14.6496 27.1298 14.5973 26.6135 14.6683C26.6995 14.217 26.7457 13.7591 26.7515 13.2998C27.3557 13.1915 27.9044 12.8788 28.3054 12.4141C28.3236 12.3928 28.3415 12.3712 28.3592 12.3491C29.1376 11.3747 28.9173 9.82976 27.878 8.97553C27.812 8.92302 27.7572 8.85785 27.7167 8.78385L27.7093 8.76992C27.666 8.68472 27.6411 8.59131 27.6364 8.49583C27.6316 8.40034 27.6471 8.30493 27.6819 8.21587C28.1455 6.98127 27.8152 5.59675 26.8788 4.84902C25.8989 4.06655 24.5098 4.04914 23.422 4.8057C23.2954 4.8952 23.1386 4.9311 22.9857 4.90559C22.9059 4.89107 22.8299 4.86105 22.7617 4.81722C21.6851 4.14383 20.2961 4.35038 19.5309 5.29751C19.5132 5.31949 19.4959 5.34167 19.4791 5.36391C19.2324 5.6891 19.0752 6.07332 19.0233 6.47822C18.9714 6.88313 19.0266 7.29456 19.1833 7.67149C19.3395 8.05634 19.5913 8.39503 19.9147 8.65557C19.9621 8.98567 20.0453 10.0688 19.3954 11.4474C19.3575 11.4046 19.3218 11.3664 19.2888 11.3334C19.7304 10.0414 19.3944 8.69495 18.3088 7.42561C17.8534 6.89094 17.2154 6.54476 16.5189 6.4544C15.8225 6.36403 15.1173 6.53594 14.5405 6.93669C13.1798 7.87699 12.509 9.07741 12.5878 10.4222C11.9247 10.6716 11.0106 11.3043 10.7954 12.4462C10.0226 11.501 8.82744 11.0443 7.30244 11.1202C6.60125 11.1523 5.93725 11.4447 5.44023 11.9404C4.94321 12.436 4.64891 13.0992 4.61488 13.8003C4.53202 15.4504 5.07835 16.7134 6.19733 17.471C6.07863 17.8758 5.92649 18.6919 6.29422 19.4942C6.61817 20.2009 7.26049 20.723 8.20457 21.0477C8.41288 21.5824 8.68677 22.0892 9.01996 22.5565C8.72286 22.795 8.46664 23.0803 8.26135 23.4013L6.44121 22.6711C6.21719 22.5815 5.96681 22.5842 5.7448 22.6787C5.52279 22.7731 5.3472 22.9516 5.25641 23.1752C5.17949 23.3659 5.16958 23.577 5.22831 23.7741C5.28704 23.9711 5.41091 24.1424 5.57967 24.2599L5.18675 24.2518H5.18023C5.05908 24.249 4.9386 24.2705 4.82587 24.3149C4.71313 24.3594 4.61042 24.4259 4.52376 24.5106C4.4371 24.5953 4.36824 24.6965 4.32123 24.8082C4.27422 24.9199 4.25 25.0399 4.25 25.161C4.25 25.2822 4.27422 25.4022 4.32123 25.5139C4.36824 25.6256 4.4371 25.7267 4.52376 25.8114C4.61042 25.8961 4.71313 25.9627 4.82587 26.0071C4.9386 26.0516 5.05908 26.0731 5.18023 26.0703V26.0702ZM28.3081 15.836C28.6657 16.1663 29.1377 16.3448 29.6244 16.3339C29.0751 16.7851 28.1968 17.1269 26.9283 16.5778C26.8441 16.5411 26.7503 16.5327 26.6608 16.5538C26.5714 16.575 26.4913 16.6245 26.4324 16.695C26.3735 16.7655 26.3391 16.8532 26.3343 16.945C26.3295 17.0367 26.3545 17.1276 26.4057 17.2039C26.6718 17.6032 26.8954 18.0293 27.0728 18.4752C27.1719 18.7234 27.1648 18.9307 27.0503 19.1057C26.7822 18.7051 26.4187 18.3776 25.9925 18.1525C25.2741 17.7749 25.2075 17.1401 25.2014 17.0169C25.1982 16.9498 25.1743 16.8853 25.1331 16.8322C25.0919 16.7792 25.0354 16.7401 24.9712 16.7203C24.907 16.7005 24.8382 16.701 24.7743 16.7217C24.7103 16.7424 24.6543 16.7823 24.6139 16.8359C24.5403 16.9333 24.1333 17.4142 23.3315 17.3091C22.8531 17.2475 22.3669 17.3055 21.9165 17.478C21.9249 17.2699 22.0393 17.0968 22.2637 16.9515C22.667 16.6895 23.0964 16.4703 23.5452 16.2975C23.631 16.2648 23.704 16.2051 23.753 16.1274C23.8021 16.0497 23.8246 15.9582 23.8172 15.8666C23.8098 15.775 23.7729 15.6883 23.7121 15.6194C23.6512 15.5506 23.5697 15.5033 23.4797 15.4847C22.1256 15.2025 21.607 14.4175 21.4204 13.7327C21.8124 14.0226 22.3016 14.149 22.7849 14.0853C23.3403 14.0169 23.8271 14.0921 24.2318 14.3083C24.3673 14.3796 24.4922 14.4694 24.6029 14.5751C24.571 14.8876 24.5314 15.1558 24.4991 15.3322C24.4862 15.4135 24.5057 15.4966 24.5533 15.5638C24.6009 15.631 24.6728 15.6769 24.7538 15.6917C24.8348 15.7065 24.9183 15.6891 24.9867 15.6432C25.055 15.5972 25.1026 15.5264 25.1194 15.4458C25.1378 15.3453 25.5571 13.0089 25.0134 11.8225C25.1769 11.783 25.3377 11.7334 25.4951 11.6739C25.6189 11.6267 25.7457 11.5874 25.8746 11.5563C26.0932 11.9476 26.3921 14.0446 25.609 15.7943C25.5915 15.8322 25.5817 15.8732 25.5801 15.9149C25.5786 15.9566 25.5853 15.9982 25.6 16.0373C25.6146 16.0764 25.6369 16.1122 25.6655 16.1426C25.6941 16.1731 25.7284 16.1975 25.7665 16.2145C25.8047 16.2316 25.8458 16.2409 25.8875 16.2419C25.9292 16.243 25.9708 16.2357 26.0097 16.2206C26.0486 16.2055 26.0841 16.1828 26.1142 16.1538C26.1443 16.1248 26.1683 16.0902 26.1849 16.0519C26.2872 15.822 26.3747 15.5858 26.4468 15.3448C26.7415 15.2595 27.5284 15.1285 28.3081 15.836ZM23.1529 13.4307C23.5761 13.0832 24.0754 12.8406 24.6102 12.7227C24.6563 13.0878 24.6712 13.4563 24.6547 13.8239C24.3239 13.6206 23.83 13.4277 23.1529 13.4307V13.4307ZM19.7673 7.43281C19.6501 7.15737 19.6084 6.85573 19.6462 6.55882C19.6841 6.26191 19.8003 5.98042 19.9828 5.74321C19.9953 5.7266 20.0082 5.71013 20.0214 5.6938C20.577 5.00605 21.6337 4.85596 22.4269 5.35208C22.5649 5.43971 22.7188 5.49934 22.8798 5.52756C23.1956 5.58107 23.5198 5.50781 23.7819 5.32369C24.6388 4.72784 25.7248 4.73526 26.4848 5.34209C27.2103 5.92148 27.4597 7.01213 27.0909 7.99422C27.0249 8.16667 26.9961 8.35115 27.0064 8.53552C27.0167 8.7199 27.0659 8.9 27.1508 9.064L27.1582 9.07793C27.2376 9.22631 27.346 9.35724 27.477 9.46297C28.2424 10.092 28.4241 11.2568 27.866 11.9553C27.8528 11.9718 27.8398 11.988 27.8258 12.0039C27.5402 12.3328 27.1579 12.563 26.7336 12.6616C26.6925 12.0742 26.5864 11.5954 26.4605 11.3238C26.3622 11.1119 26.24 10.9874 26.0869 10.9432C25.8572 10.8767 25.5918 10.9707 25.2845 11.0794C25.1877 11.1137 25.089 11.1486 24.9977 11.1754C24.7625 10.8839 24.8254 10.5966 24.8715 10.5375C24.9183 10.4817 24.9492 10.4144 24.961 10.3426C24.9728 10.2708 24.9651 10.1971 24.9386 10.1293C24.9122 10.0615 24.868 10.0021 24.8106 9.95724C24.7533 9.9124 24.685 9.8838 24.6128 9.87445C23.3357 9.70648 22.9053 8.90324 22.7623 8.43924C22.7405 8.36882 22.6999 8.30565 22.645 8.25651C22.59 8.20737 22.5227 8.17411 22.4503 8.16029C22.3779 8.14647 22.3031 8.15262 22.2339 8.17807C22.1647 8.20352 22.1037 8.24731 22.0575 8.30476C21.935 8.45633 21.685 8.62135 21.1896 8.54659C20.8758 8.5015 20.5794 8.37492 20.3298 8.17949C20.0803 7.98406 19.8863 7.7266 19.7673 7.43281V7.43281ZM24.2411 11.0573L23.2173 11.1389L23.9243 10.3674C24.0218 10.3982 24.1244 10.4252 24.2322 10.4486C24.1825 10.6488 24.1856 10.8586 24.2411 11.0573V11.0573ZM22.4965 9.3245L21.759 10.2445L21.7911 9.15748C21.9674 9.12008 22.1346 9.04846 22.2832 8.94666C22.344 9.07817 22.4154 9.20453 22.4966 9.3245H22.4965ZM20.5758 9.03341C20.7438 9.0976 20.9181 9.14358 21.0959 9.17057C21.1175 9.17377 21.1383 9.17614 21.1594 9.17871L21.1186 10.5585C21.1152 10.6675 21.1461 10.7747 21.2071 10.8651C21.268 10.9555 21.3559 11.0244 21.4582 11.0621C21.5605 11.0997 21.672 11.1043 21.777 11.075C21.882 11.0457 21.9752 10.9841 22.0432 10.899L22.9186 9.80689C23.0417 9.91614 23.1749 10.0134 23.3163 10.0975L22.6903 10.7809C22.6123 10.8659 22.5608 10.9718 22.542 11.0856C22.5232 11.1994 22.5379 11.3163 22.5843 11.4219C22.6307 11.5275 22.7068 11.6173 22.8033 11.6804C22.8999 11.7436 23.0127 11.7773 23.128 11.7774C23.1439 11.7774 23.1599 11.7768 23.176 11.7755L24.3698 11.6803C24.3461 11.805 24.3643 11.9339 24.4215 12.0471C24.4318 12.0675 24.4413 12.0892 24.4508 12.1106C23.5931 12.3019 22.8208 12.7669 22.2505 13.4354C21.87 13.345 21.5954 13.0879 21.4171 12.8544C21.3654 12.7865 21.2934 12.7369 21.2116 12.7126C21.1298 12.6883 21.0425 12.6907 20.9621 12.7193C20.8817 12.7479 20.8125 12.8013 20.7645 12.8718C20.7165 12.9423 20.6921 13.0262 20.6949 13.1115C20.7093 13.6023 20.8347 14.0834 21.0617 14.5187C20.4617 14.7835 19.9035 15.1344 19.4048 15.5604C19.3932 15.5174 19.3819 15.4785 19.3715 15.4447C19.6941 14.9584 20.0003 14.3376 20.0832 13.6556C20.9781 12.7869 21.224 11.5904 21.2341 11.5384L20.6154 11.4153C20.5032 11.8809 20.3098 12.323 20.044 12.7215C19.9938 12.4856 19.9123 12.2576 19.8017 12.0433C20.4814 10.7713 20.5911 9.68062 20.5759 9.03341H20.5758ZM13.0027 10.9511C13.0776 10.9322 13.1429 10.8865 13.1863 10.8227C13.2298 10.7588 13.2483 10.6813 13.2384 10.6047C13.0806 9.38574 13.6393 8.32621 14.8992 7.45568C15.3477 7.14403 15.896 7.0103 16.4376 7.08051C16.9791 7.15071 17.4753 7.41982 17.8294 7.83551C18.8238 8.99834 19.092 10.165 18.6266 11.3031C18.6003 11.3674 18.596 11.4386 18.6143 11.5056C18.6326 11.5726 18.6725 11.6317 18.7278 11.6737C19.0055 11.9145 19.2177 12.2218 19.3444 12.5668C19.6371 13.3613 19.4416 14.2527 18.7635 15.2164C18.7328 15.26 18.7136 15.3108 18.7078 15.3638C18.702 15.4169 18.7098 15.4705 18.7304 15.5197C18.7331 15.5262 18.9976 16.172 18.8877 17.1022C18.7593 18.1886 18.1908 19.1729 17.1962 20.0356C17.2031 18.7416 16.9245 17.2696 15.8918 16.1826C15.7009 15.9815 15.4898 15.8004 15.2619 15.6423C15.3675 15.1972 15.477 14.7591 15.587 14.335C16.0734 14.166 17.4187 13.6103 17.84 12.5185C17.8701 12.4405 17.868 12.3536 17.8341 12.2771C17.8002 12.2006 17.7372 12.1407 17.6592 12.1106C17.5811 12.0805 17.4942 12.0826 17.4177 12.1165C17.3412 12.1504 17.2813 12.2133 17.2512 12.2914C17.0055 12.9283 16.2944 13.3481 15.7882 13.5761C16.3625 11.4575 16.8949 9.85657 16.902 9.83533C16.9155 9.79594 16.9211 9.75427 16.9184 9.71271C16.9157 9.67115 16.9049 9.63053 16.8864 9.5932C16.8679 9.55586 16.8423 9.52255 16.8109 9.49518C16.7795 9.46782 16.743 9.44694 16.7035 9.43375C16.664 9.42056 16.6223 9.41533 16.5807 9.41835C16.5392 9.42136 16.4987 9.43258 16.4615 9.45134C16.4243 9.4701 16.3912 9.49604 16.3641 9.52766C16.337 9.55928 16.3165 9.59595 16.3036 9.63556C16.2963 9.65722 15.7496 11.3013 15.1641 13.4675C14.7955 13.0161 14.3144 12.1945 14.5736 11.1837C14.5944 11.1027 14.5822 11.0167 14.5396 10.9447C14.497 10.8727 14.4275 10.8206 14.3465 10.7998C14.2654 10.779 14.1794 10.7913 14.1074 10.8339C14.0354 10.8765 13.9833 10.9459 13.9625 11.027C13.5563 12.6112 14.5711 13.7975 14.9723 14.1918C14.8777 14.5567 14.7835 14.9319 14.6918 15.3131C14.571 15.2561 14.4469 15.2063 14.3203 15.1639C14.0135 14.2759 13.4038 13.2113 12.2076 12.8371C11.9438 12.7551 11.6695 12.7119 11.3932 12.7087C11.5465 11.3453 12.94 10.9673 13.0027 10.9511V10.9511ZM17.7932 22.7811L17.157 22.685C17.1059 22.2986 17.0663 21.6373 17.1273 21.1224C17.1368 21.0429 17.1453 20.9615 17.153 20.8788C17.2256 20.8244 17.2968 20.7699 17.3652 20.7151C17.4256 21.3981 17.5656 22.1552 17.7932 22.7811V22.7811ZM8.74885 20.6983C8.73326 20.6504 8.70642 20.6068 8.67055 20.5714C8.63468 20.536 8.59085 20.5097 8.54271 20.4946C7.69683 20.2311 7.13432 19.8078 6.87004 19.2364C6.47933 18.391 6.86284 17.4709 6.86636 17.4626C6.89712 17.3917 6.90078 17.312 6.87665 17.2386C6.85252 17.1652 6.80228 17.1032 6.73546 17.0644C5.66994 16.4453 5.16851 15.3576 5.245 13.8315C5.27161 13.2867 5.50043 12.7715 5.88673 12.3865C6.27304 12.0015 6.78905 11.7744 7.33388 11.7496C8.86561 11.6733 9.9572 12.1733 10.5781 13.2357C10.6131 13.295 10.6665 13.3413 10.7301 13.3676C10.7938 13.3939 10.8643 13.3988 10.9309 13.3816C11.013 13.3603 12.9497 12.8921 13.7718 15.5144C13.7886 15.5672 13.8189 15.6147 13.8597 15.6522C13.9006 15.6897 13.9505 15.7158 14.0045 15.728C14.0122 15.7298 14.7763 15.9093 15.4587 16.6422C16.3665 17.6174 16.727 19.1409 16.5011 21.048C16.441 21.5552 16.4675 22.1594 16.5116 22.5873L15.452 22.4272C15.4469 22.3463 15.4107 22.2706 15.3509 22.2158C14.9528 21.8514 14.5431 21.4421 14.1313 21.0056C14.2549 20.4943 14.5282 19.0374 13.9222 18.0466C13.8783 17.9757 13.8081 17.925 13.727 17.9057C13.6459 17.8864 13.5605 17.8999 13.4893 17.9435C13.4182 17.987 13.3672 18.0569 13.3474 18.1379C13.3277 18.2189 13.3408 18.3044 13.384 18.3758C13.7507 18.9751 13.6949 19.8565 13.6022 20.4317C12.7446 19.4809 11.8947 18.4435 11.1366 17.4736C11.3021 16.9768 11.6724 15.5926 11.063 14.5959C11.0193 14.5245 10.9491 14.4734 10.8678 14.4538C10.7865 14.4342 10.7007 14.4478 10.6293 14.4914C10.5579 14.5351 10.5068 14.6053 10.4872 14.6866C10.4676 14.768 10.4812 14.8537 10.5248 14.9251C10.8784 15.5034 10.7827 16.313 10.6562 16.8522C9.32503 15.113 8.37664 13.7271 8.35766 13.6992C8.33433 13.665 8.30448 13.6357 8.26982 13.613C8.23517 13.5903 8.19638 13.5746 8.15568 13.5669C8.11498 13.5592 8.07316 13.5596 8.03261 13.5681C7.99206 13.5766 7.95357 13.5929 7.91934 13.6163C7.88512 13.6396 7.85582 13.6694 7.83313 13.7041C7.81044 13.7388 7.7948 13.7775 7.7871 13.8182C7.7794 13.8589 7.77979 13.9008 7.78825 13.9413C7.79671 13.9819 7.81308 14.0203 7.83641 14.0546C7.85576 14.083 8.83049 15.5076 10.1969 17.289C9.61365 17.3065 8.65937 17.1886 8.0099 16.362C7.95821 16.2962 7.88251 16.2537 7.79945 16.2437C7.71639 16.2337 7.63277 16.2572 7.56698 16.3088C7.5012 16.3605 7.45864 16.4362 7.44868 16.5193C7.43871 16.6024 7.46215 16.686 7.51383 16.7518C8.28432 17.7325 9.3745 17.9202 10.0964 17.9202C10.2836 17.9204 10.4707 17.9076 10.6561 17.8819C11.4355 18.878 12.3107 19.9446 13.1938 20.9195C12.5828 21.0299 11.5209 21.0889 10.7737 20.4026C10.7433 20.374 10.7075 20.3517 10.6684 20.337C10.6294 20.3223 10.5878 20.3155 10.546 20.317C10.5043 20.3186 10.4633 20.3283 10.4254 20.3458C10.3875 20.3633 10.3534 20.3881 10.3252 20.4189C10.2969 20.4496 10.2751 20.4857 10.2609 20.5249C10.2467 20.5642 10.2404 20.6059 10.2424 20.6476C10.2444 20.6893 10.2547 20.7302 10.2727 20.7679C10.2906 20.8056 10.3159 20.8393 10.347 20.8672C10.9916 21.4593 11.7894 21.6195 12.4646 21.6195C12.8782 21.6175 13.2899 21.5625 13.6895 21.4557C13.9628 21.7453 14.2356 22.0228 14.5048 22.284L11.4097 21.8161C11.4028 21.8151 11.396 21.8144 11.3891 21.8137C10.7496 21.762 10.109 21.8987 9.5462 22.2067C9.21237 21.743 8.94406 21.2354 8.74885 20.6983V20.6983ZM8.86392 23.6329C9.41551 22.847 10.3494 22.3629 11.326 22.4419L13.6707 22.7962V24.3761C13.6707 24.4598 13.7039 24.54 13.763 24.5992C13.8222 24.6583 13.9024 24.6915 13.9861 24.6915C14.0697 24.6915 14.15 24.6583 14.2091 24.5992C14.2683 24.54 14.3015 24.4598 14.3015 24.3761V22.8915L20.6946 23.8579V24.7661C20.6946 24.8498 20.7278 24.93 20.787 24.9891C20.8461 25.0483 20.9264 25.0815 21.01 25.0815C21.0937 25.0815 21.1739 25.0483 21.2331 24.9891C21.2922 24.93 21.3254 24.8498 21.3254 24.7661V23.9529L26.141 24.6806C26.2695 24.6993 26.3868 24.7638 26.4715 24.8622C26.5561 24.9607 26.6024 25.0863 26.6017 25.2162C26.6012 25.3463 26.5541 25.4719 26.4689 25.5702C26.3838 25.6686 26.2662 25.7332 26.1375 25.7524L24.2201 26.0291V25.8188C24.2201 25.7351 24.1869 25.6549 24.1277 25.5957C24.0686 25.5366 23.9883 25.5034 23.9047 25.5034C23.821 25.5034 23.7408 25.5366 23.6816 25.5957C23.6225 25.6549 23.5892 25.7351 23.5892 25.8188V26.1207L18.628 26.8375V25.8701C18.628 25.7865 18.5948 25.7063 18.5356 25.6471C18.4765 25.588 18.3962 25.5547 18.3126 25.5547C18.2289 25.5547 18.1487 25.588 18.0895 25.6471C18.0304 25.7063 17.9971 25.7865 17.9971 25.8701V26.9285L11.358 27.8876V26.2037C11.358 26.12 11.3247 26.0398 11.2656 25.9806C11.2064 25.9215 11.1262 25.8882 11.0425 25.8882C10.9589 25.8882 10.8787 25.9215 10.8195 25.9806C10.7603 26.0398 10.7271 26.12 10.7271 26.2037V27.871C10.351 27.8114 9.99089 27.6759 9.66877 27.4727C9.34665 27.2696 9.06924 27.003 8.85341 26.6892C9.00974 26.4335 9.12706 26.1558 9.20149 25.8655C9.33707 25.3339 9.38055 24.528 8.86392 23.6329V23.6329ZM6.20643 27.0635C6.13751 27.0912 6.06043 27.0905 5.99204 27.0615C5.92364 27.0326 5.8695 26.9777 5.84142 26.909C5.8277 26.8752 5.82082 26.8391 5.82118 26.8027C5.82154 26.7662 5.82914 26.7303 5.84353 26.6968C5.85794 26.6628 5.87897 26.6321 5.90539 26.6064C5.93181 26.5806 5.96309 26.5604 5.9974 26.5469L7.26964 26.0329L7.85318 26.0224C7.88468 26.1362 7.92209 26.2482 7.96527 26.3581L6.20643 27.0635ZM5.84142 23.411C5.8695 23.3423 5.92364 23.2874 5.99202 23.2584C6.0604 23.2295 6.13747 23.2288 6.20638 23.2564L7.971 23.9643C7.92611 24.0762 7.88726 24.1905 7.8546 24.3066L7.23904 24.2942L5.99667 23.773C5.96266 23.7595 5.93165 23.7394 5.90543 23.7138C5.87921 23.6883 5.85828 23.6579 5.84386 23.6242C5.82943 23.5906 5.82179 23.5545 5.82137 23.5179C5.82096 23.4813 5.82777 23.445 5.84142 23.411V23.411ZM5.1776 24.8826L8.65085 24.9541C8.66427 25.0948 8.66408 25.2366 8.65027 25.3773L5.17797 25.4394C5.10612 25.4365 5.03818 25.4059 4.98835 25.354C4.93853 25.3022 4.91068 25.2331 4.91064 25.1612C4.91059 25.0893 4.93834 25.0201 4.9881 24.9682C5.03786 24.9163 5.10576 24.8856 5.1776 24.8826V24.8826Z" fill="#242424"/>
</svg>
