<svg width="34" height="34" viewBox="0 0 34 34" fill="none" xmlns="http://www.w3.org/2000/svg">
<path d="M27.6746 23.4558L27.3972 23.3958C30.0859 21.3154 30.6588 16.6962 28.1263 14.2893C27.1518 13.3636 26.5697 11.8987 26.5697 10.3701C26.5697 8.15455 25.0266 6.35167 23.1293 6.35167C21.2327 6.35167 19.6889 8.15455 19.6889 10.3701C19.6889 10.8736 19.6259 11.3697 19.506 11.8419C17.7385 9.91516 14.9318 9.69431 13.0549 10.9259V6.40661C13.0549 6.21074 12.8866 6.05181 12.6794 6.05181C12.4721 6.05181 12.3038 6.21074 12.3038 6.40661V7.79974C11.1818 5.88809 9.14019 5.37674 6.85383 5.81147C6.6229 5.85557 6.49119 6.08782 6.58029 6.29398C6.60131 6.3423 7.10733 7.49418 8.08495 8.50274C9.24194 9.69651 10.6779 10.2893 12.3038 9.86408V10.9259C10.0974 9.47804 6.40306 9.99785 4.88537 13.2993C4.80288 13.479 4.89043 13.6876 5.0807 13.7657C5.27117 13.8438 5.49198 13.7614 5.57466 13.5816C6.96356 10.5608 10.2847 10.3168 12.0462 11.6271C12.4129 11.9185 12.9477 11.917 13.3125 11.6271C15.3177 10.1355 18.7868 10.7846 19.9755 14.0484C20.6146 15.8063 20.4867 17.6446 19.3774 19.5462C18.9362 20.2916 18.5735 20.9114 18.2739 21.4275C15.9475 20.9542 15.6154 20.7811 14.8236 20.7973C14.6162 20.8011 14.4514 20.9628 14.4559 21.1587C14.46 21.3551 14.6308 21.5111 14.8391 21.5063C14.9753 21.5036 15.13 21.5102 15.2932 21.5291L15.0679 23.44C15.045 23.6346 15.1934 23.8101 15.3996 23.8318C15.6066 23.8535 15.7917 23.7125 15.8146 23.5185L16.0325 21.6712C17.5331 21.9947 18.5097 22.2057 19.6733 22.457L19.5659 23.3682C19.543 23.563 19.6914 23.7384 19.8976 23.7601C20.1046 23.7818 20.2897 23.6409 20.3126 23.4467L20.4105 22.616C20.6426 22.6661 25.9744 23.8163 26.0412 23.8309L25.7511 26.2906C25.7281 26.4854 25.8768 26.6609 26.0828 26.6825C26.29 26.7042 26.4748 26.5633 26.4978 26.3693L26.7785 23.99L27.5075 24.1474C28.4112 24.3422 29.008 25.1351 28.9049 26.0054C28.8028 26.8711 28.0298 27.5254 27.1079 27.5272L23.2628 27.5342L23.3994 26.3773C23.4223 26.1826 23.2739 26.0071 23.0676 25.9854C22.8612 25.9639 22.6756 26.1039 22.6527 26.2987L22.5068 27.5356L18.8216 27.5423L18.9498 26.4547C18.9728 26.2601 18.8243 26.0846 18.6181 26.063C18.4125 26.0411 18.2261 26.1815 18.2031 26.3762C18.1712 26.6473 18.0687 27.5149 18.0656 27.5437L16.3012 27.5469L16.5245 25.6538C16.5475 25.4592 16.3991 25.2837 16.1928 25.262C15.9864 25.2402 15.8008 25.3805 15.7779 25.5753L15.545 27.5483C15.5413 27.5483 15.5386 27.5483 15.5364 27.5483C15.5362 27.5483 15.5358 27.5483 15.5356 27.5483C15.5351 27.5483 15.5345 27.5483 15.5339 27.5483C15.5339 27.5483 15.5337 27.5483 15.5335 27.5483C15.5327 27.5483 15.5323 27.5483 15.5316 27.5483C15.5072 27.5483 15.3893 27.5485 14.9094 27.5494C13.4349 27.5494 12.1709 26.5995 11.8116 25.2868C11.4429 23.9461 12.0884 22.4489 13.5415 21.7968C13.7288 21.7127 13.8088 21.5012 13.7197 21.3243C13.6306 21.1473 13.4067 21.0716 13.2193 21.1559C12.487 21.4841 11.8962 22.0017 11.503 22.6345C10.7427 22.2764 9.87306 21.713 9.40925 20.8835C8.80984 19.808 7.08107 20.2119 7.07523 21.426L5.8982 19.4051C5.0914 18.0206 4.79588 16.4667 5.14704 14.863C5.18907 14.671 5.05833 14.4832 4.85502 14.4435C4.65172 14.4038 4.45328 14.5273 4.41125 14.7193C4.0346 16.4402 4.32059 18.169 5.23965 19.7472L6.84449 22.502L5.66844 22.3782C4.9879 22.3067 4.37565 22.7686 4.29997 23.4117C4.22449 24.0528 4.71475 24.6327 5.39393 24.7042L7.34118 24.9089C6.85831 25.3171 6.4696 25.6872 6.51843 26.2708C6.60286 27.3023 7.97697 27.7321 8.69506 26.9401C9.2861 26.2869 10.2096 25.8834 11.1458 25.6657C11.6547 27.1682 13.1493 28.259 14.9094 28.259C15.4817 28.2579 26.4176 28.2381 27.1088 28.2368C28.5289 28.2342 29.6678 27.1474 29.6678 25.8138C29.6676 24.6786 28.8481 23.7089 27.6746 23.4558V23.4558ZM7.48087 6.43032C9.9787 6.10822 11.5538 7.23253 12.0798 9.18626C10.0448 9.70368 8.44447 8.18432 7.48087 6.43032ZM26.4174 23.1843L19.0383 21.592C19.2515 21.223 19.4881 20.8158 19.7515 20.3679C20.4473 21.4997 21.7443 22.2623 23.2264 22.2623C25.1332 22.2623 26.7886 20.9823 27.1622 19.2188C27.2028 19.0267 27.0705 18.8399 26.8672 18.8017C26.6633 18.7633 26.4661 18.8876 26.4254 19.0797C26.1219 20.5125 24.7766 21.5528 23.2264 21.5528C21.854 21.5528 20.677 20.7482 20.1957 19.6123C20.8198 18.4904 21.1188 17.3049 21.1087 16.1289C22.9935 14.6068 25.8995 15.5669 26.4149 17.8157C26.459 18.0073 26.6583 18.129 26.8618 18.0873C27.0645 18.0457 27.1933 17.8569 27.1491 17.6654C26.9585 16.8323 26.4655 16.0749 25.7628 15.5329C24.4276 14.5038 22.519 14.3876 21.0492 15.288C20.9241 14.3555 20.5959 13.3837 20.0716 12.5741C20.3124 11.8882 20.4402 11.1416 20.4402 10.3701C20.4402 8.73315 21.5198 7.06129 23.1293 7.06129C24.7217 7.06129 25.8184 8.71074 25.8184 10.3701C25.8184 12.1072 26.4655 13.7179 27.5935 14.7898C29.5499 16.6478 29.3606 20.0974 27.6612 22.1294C27.2919 22.5708 26.8717 22.9256 26.4174 23.1843V23.1843ZM10.9859 24.9671C9.91566 25.213 8.8328 25.6962 8.12405 26.4789C7.94915 26.6721 7.64059 26.6947 7.43632 26.5297C7.23145 26.3637 7.20752 26.0734 7.38281 25.8805C7.70985 25.5194 8.10168 25.2052 8.5186 24.9524C8.81431 24.7718 8.70712 24.3387 8.35634 24.3022C8.03106 24.2678 5.72311 24.0247 5.477 23.9988C5.21008 23.9709 5.01669 23.7425 5.04627 23.4904C5.07584 23.241 5.31222 23.0557 5.58517 23.0836C5.58673 23.0838 5.58828 23.0838 5.58964 23.0839C5.58887 23.0839 5.58809 23.0838 5.5875 23.0838C5.58926 23.0839 5.59217 23.0843 5.59645 23.0847C5.59626 23.0847 5.59606 23.0847 5.59568 23.0847C5.59976 23.085 5.60268 23.0852 5.60443 23.0856C5.60307 23.0854 5.60112 23.0852 5.59898 23.0849C5.67583 23.093 6.12466 23.1402 8.20109 23.3588C8.32055 23.3517 8.68455 23.4977 8.84369 23.1894C8.91334 23.0542 8.88533 22.8929 8.77404 22.7855C8.40946 22.4344 8.10946 22.0504 7.88261 21.6445C7.75693 21.4198 7.84857 21.1407 8.08592 21.022H8.0865C8.32658 20.9027 8.61918 20.9904 8.74505 21.2146C9.29855 22.2051 10.3137 22.864 11.1872 23.2741C10.9878 23.8053 10.9133 24.3955 10.9859 24.9671V24.9671Z" fill="#242424"/>
</svg>
