<svg width="24" height="24" viewBox="0 0 24 24" fill="none" xmlns="http://www.w3.org/2000/svg">
<path d="M17.9901 21.1647L16.7402 7.61138C16.7061 7.24125 16.3875 6.95774 16.006 6.95774H13.4285V5.82582C13.4285 3.71626 11.6661 2 9.4997 2C7.33344 2 5.57118 3.71626 5.57118 5.82582V6.95774H2.99198C2.61039 6.95774 2.29181 7.24125 2.2577 7.61138L1.00295 21.218C0.984468 21.4188 1.05347 21.6178 1.19315 21.7666C1.33283 21.9153 1.53031 22 1.73722 22H17.2608H17.2628C17.67 22 18 21.6786 18 21.2821C17.9999 21.2422 17.9966 21.2029 17.9901 21.1647ZM7.04563 5.82582C7.04563 4.50792 8.14655 3.43572 9.4998 3.43572C10.8531 3.43572 11.9542 4.50792 11.9542 5.82582V6.95774H7.04563V5.82582ZM2.54365 20.5644L3.666 8.39346H5.57118V9.67719C5.57118 10.0736 5.90116 10.3951 6.30841 10.3951C6.71565 10.3951 7.04563 10.0736 7.04563 9.67719V8.39346H11.9542V9.67719C11.9542 10.0736 12.2842 10.3951 12.6914 10.3951C13.0986 10.3951 13.4286 10.0736 13.4286 9.67719V8.39346H15.332L16.4544 20.5644H2.54365Z" fill="#242424"/>
</svg>
