<svg width="24" height="24" viewBox="0 0 24 24" fill="none" xmlns="http://www.w3.org/2000/svg">
<path d="M17.3192 5.86204C16.2204 4.76327 14.7503 4.1582 13.1792 4.1582C11.8267 4.1582 10.5491 4.60678 9.51867 5.43261C8.47344 4.60678 7.19425 4.1582 5.85489 4.1582C4.27656 4.1582 2.80257 4.76353 1.70384 5.86204C0.605068 6.96059 0 8.43094 0 10.0017C0 11.5728 0.605068 13.0429 1.70384 14.1414L9.0168 21.4544C9.15006 21.5879 9.32503 21.6546 9.5 21.6546C9.67453 21.6546 9.84901 21.5881 9.98253 21.4553L17.3014 14.1587C18.397 13.0386 19 11.5664 19 10.0131C19 8.44552 18.405 6.97336 17.3192 5.86204ZM16.3302 13.1966L9.50067 20.0052L2.67024 13.175C1.82983 12.3344 1.36689 11.2074 1.36689 10.0017C1.36689 8.79613 1.82983 7.66912 2.67024 6.82848C3.51088 5.98807 4.64179 5.52513 5.85489 5.52513C7.04867 5.52513 8.18184 5.99011 9.04504 6.83394C9.31249 7.09571 9.74147 7.09341 10.006 6.82848C10.8466 5.98807 11.9734 5.52513 13.1792 5.52513C14.3851 5.52513 15.5119 5.98807 16.3468 6.82299C17.1763 7.67161 17.6331 8.80456 17.6331 10.0131C17.6331 11.2071 17.1684 12.34 16.3302 13.1966Z" fill="#242424"/>
</svg>
