<svg width="24" height="24" viewBox="0 0 24 24" fill="none" xmlns="http://www.w3.org/2000/svg">
<path d="M11.4996 10.9953C9.13203 10.9953 7.20605 9.06934 7.20605 6.70176C7.20605 4.33418 9.13203 2.4082 11.4996 2.4082C13.8672 2.4082 15.7932 4.33418 15.7932 6.70176C15.7932 9.06934 13.8672 10.9953 11.4996 10.9953ZM11.4996 3.92227C9.96699 3.92227 8.72012 5.16914 8.72012 6.70176C8.72012 8.23437 9.96699 9.48125 11.4996 9.48125C13.0322 9.48125 14.2791 8.23437 14.2791 6.70176C14.2791 5.16914 13.0322 3.92227 11.4996 3.92227V3.92227Z" fill="#242424"/>
<path d="M19.8348 20.5917H3.16523C2.7459 20.5917 2.4082 20.2541 2.4082 19.8347C2.4082 17.3595 3.37305 15.0402 5.1209 13.3035C6.24902 12.1828 7.84102 11.5408 9.48496 11.5408H13.515C15.1627 11.5408 16.751 12.1828 17.8791 13.3035C19.627 15.0402 20.5918 17.3595 20.5918 19.8347C20.5918 20.2541 20.2541 20.5917 19.8348 20.5917ZM3.95937 19.0777H19.0406C18.8699 17.2964 18.0906 15.6488 16.8104 14.3796C15.9643 13.541 14.7619 13.0585 13.515 13.0585H9.48496C8.23437 13.0585 7.03574 13.541 6.18965 14.3796C4.90938 15.6488 4.13008 17.2964 3.95937 19.0777V19.0777Z" fill="#242424"/>
</svg>
